<?xml version="1.0" encoding="UTF-8" standalone="no"?>
<svg xmlns="http://www.w3.org/2000/svg" width="48" height="144" viewBox="0 0 48 144">
  <!-- Hoe Tool Animation Sprite Sheet -->
  <!-- 3 rows (down, up, side) x 1 column -->
  
  <!-- Row 1: Downward Hoe -->
  <g transform="translate(0, 0)">
    <!-- Handle -->
    <rect x="23" y="8" width="2" height="28" fill="#8B4513" />
    
    <!-- Handle Grip -->
    <rect x="22" y="6" width="4" height="4" rx="1" fill="#5D2906" />
    
    <!-- Blade -->
    <rect x="21.5" y="32" width="5" height="8" rx="1" fill="#A9A9A9" />
    
    <!-- Blade Edge -->
    <rect x="21.5" y="38" width="5" height="2" fill="#808080" />
    
    <!-- Soil particles -->
    <g fill="#5E3A1C">
      <circle cx="18" cy="38" r="1.5" />
      <circle cx="21" cy="41" r="1" />
      <circle cx="26" cy="40" r="2" />
      <circle cx="29" cy="39" r="1.2" />
      <circle cx="24" cy="42" r="1.3" />
    </g>
  </g>
  
  <!-- Row 2: Upward Hoe -->
  <g transform="translate(0, 48)">
    <!-- Handle -->
    <rect x="23" y="12" width="2" height="28" fill="#8B4513" />
    
    <!-- Handle Grip -->
    <rect x="22" y="38" width="4" height="4" rx="1" fill="#5D2906" />
    
    <!-- Blade -->
    <rect x="21.5" y="8" width="5" height="8" rx="1" fill="#A9A9A9" />
    
    <!-- Blade Edge -->
    <rect x="21.5" y="8" width="5" height="2" fill="#808080" />
    
    <!-- Soil particles -->
    <g fill="#5E3A1C">
      <circle cx="18" cy="9" r="1.5" />
      <circle cx="21" cy="6" r="1" />
      <circle cx="26" cy="7" r="2" />
      <circle cx="29" cy="8" r="1.2" />
      <circle cx="24" cy="5" r="1.3" />
    </g>
  </g>
  
  <!-- Row 3: Side Hoe (for both left and right - will be flipped horizontally) -->
  <g transform="translate(0, 96)">
    <!-- Handle -->
    <rect x="8" y="23" width="28" height="2" fill="#8B4513" />
    
    <!-- Handle Grip -->
    <rect x="6" y="22" width="4" height="4" rx="1" fill="#5D2906" />
    
    <!-- Blade -->
    <rect x="32" y="21.5" width="8" height="5" rx="1" fill="#A9A9A9" />
    
    <!-- Blade Edge -->
    <rect x="38" y="21.5" width="2" height="5" fill="#808080" />
    
    <!-- Soil particles -->
    <g fill="#5E3A1C">
      <circle cx="37" cy="28" r="1.5" />
      <circle cx="40" cy="29" r="1" />
      <circle cx="38" cy="31" r="2" />
      <circle cx="34" cy="30" r="1.2" />
      <circle cx="41" cy="27" r="1.3" />
    </g>
  </g>
</svg>