<?xml version="1.0" encoding="UTF-8"?>
<svg width="24" height="24" viewBox="0 0 24 24" fill="none" xmlns="http://www.w3.org/2000/svg">
  <path d="M7 6C7 6 7 4 9 4H13C15 4 15 6 15 6V9C15 9 15 10 14 10H8C7 10 7 9 7 9V6Z" fill="#607D8B"/>
  <path d="M15 7H16C17 7 18 8 18 9V12C18 13 17 14 16 14H15V7Z" fill="#78909C"/>
  <path d="M16 14C16 14 18 15 18 16C18 17 16 18 16 18H10C10 18 8 17 8 16C8 15 10 14 10 14H16Z" fill="#2196F3"/>
  <path d="M10 18V20C10 21 11 21 11 21H15C15 21 16 21 16 20V18" stroke="#78909C" stroke-width="0.5"/>
  <path d="M11 14C11 14 10.5 15 10.5 15.5C10.5 16 11 16.5 11 16.5" stroke="#29B6F6" stroke-width="0.5"/>
  <path d="M13 14C13 14 12.5 15 12.5 15.5C12.5 16 13 16.5 13 16.5" stroke="#29B6F6" stroke-width="0.5"/>
  <path d="M15 14C15 14 14.5 15 14.5 15.5C14.5 16 15 16.5 15 16.5" stroke="#29B6F6" stroke-width="0.5"/>
</svg>